<svg xmlns="http://www.w3.org/2000/svg" shape-rendering="geometricPrecision" text-rendering="geometricPrecision" image-rendering="optimizeQuality" fill-rule="evenodd" clip-rule="evenodd" viewBox="0 0 512 493.03"><path fill="#0983E0" fill-rule="nonzero" d="M125.195 0h261.61C455.583 0 512 56.416 512 125.195v242.64c0 68.891-56.304 125.195-125.195 125.195h-261.61C56.416 493.03 0 436.614 0 367.835v-242.64C0 56.326 56.349 0 125.195 0z"/><path fill="#88DFF3" d="M125.195 18.969h261.61c58.432 0 106.225 47.816 106.225 106.226v242.64c0 58.409-47.816 106.225-106.225 106.225h-261.61c-58.41 0-106.226-47.793-106.226-106.225v-242.64c0-58.432 47.794-106.226 106.226-106.226z"/><path fill="#A3EDFD" d="M141.365 28.465h223.536c58.432 0 111.937 48.466 111.937 106.226v223.671c0 57.759-54.177 106.225-111.937 106.225H141.365c-57.76 0-106.225-47.794-106.225-106.225V134.691c0-58.432 47.793-106.226 106.225-106.226z"/><path fill="#E8FBFD" d="M309.448 28.465h55.453c58.432 0 111.937 48.376 111.937 106.226v36.729c-17.514-.313-9.765-39.215-22.419-66.695-24.927-54.154-81.589-61.388-144.971-76.26z"/><path fill="#fff" fill-rule="nonzero" d="M270.901 112.642c8.538 0 16.714.653 24.43 1.911 7.862 1.282 15.118 3.265 21.697 5.829 13.667 5.37 24.987 13.377 33.744 23.874l.822 1.089c4.064 5.031 7.571 10.425 10.401 16.11l.508 1.161c2.83 5.829 5.152 12.142 6.894 18.722 1.814 6.821 3.168 14.102 4.063 21.697l.049.435c.846 7.499 1.282 15.36 1.282 23.439l-.484 14.44-1.403 15.506c-.629 5.49-1.596 11.15-2.782 16.786-3.725 17.489-9.578 33.864-18.431 49.369a107.417 107.417 0 01-10.861 15.65c-3.894 4.789-8.393 9.361-13.376 13.666-4.935 4.234-10.45 8.128-16.497 11.611-5.853 3.362-12.191 6.338-18.818 8.805-6.894 2.564-14.417 4.499-22.399 5.757l-.484.072c-7.885 1.21-16.11 1.838-24.6 1.838-9.699 0-18.843-.798-27.308-2.322-8.684-1.572-16.57-3.99-23.657-7.232-7.087-3.241-13.449-7.063-18.94-11.32-29.727-23.149-37.564-61.076-37.564-97.287 0-8.925.532-17.899 1.596-26.801l.048-.435c1.016-8.538 2.613-17.174 4.693-25.809l.169-.677a139.026 139.026 0 018.563-24.769 126.814 126.814 0 0113.401-22.979l.725-.92a110.11 110.11 0 0117.851-18.77c6.918-5.805 14.731-10.885 23.366-15.263 8.684-4.403 18.48-7.741 29.341-9.941 10.595-2.129 21.939-3.242 33.961-3.242zm-6.797 80.983c-5.273 0-9.603.823-12.893 2.443l-4.934 3.072-3.918 3.822a42.43 42.43 0 00-6.677 11.224l-2.636 7.329-1.935 7.377-1.427 7.789c-.847 7.305-1.307 13.715-1.5 21.044.048 8.756.75 16.134 2.104 22.109l.097.508c1.161 4.958 2.758 8.804 4.741 11.513 1.79 2.395 3.943 4.233 6.313 5.394 2.54 1.234 5.684 1.863 9.361 1.863 5.685 0 10.208-1.669 13.425-4.959a50.27 50.27 0 006.386-7.982c1.91-3 3.628-6.362 5.055-9.941 1.548-3.943 2.878-7.983 3.894-11.926 1.041-4.015 1.887-8.175 2.419-12.287.871-8.104 1.452-14.441 1.79-22.52 0-6.845-.58-12.844-1.669-17.948-.991-4.596-2.467-8.562-4.33-11.755l-.338-.581c-2.492-3.701-6.942-5.588-13.328-5.588z"/><path fill="#0983E0" fill-rule="nonzero" d="M270.901 128.002c15.795 0 29.292 2.225 40.54 6.652 11.248 4.426 20.439 10.909 27.575 19.447 7.135 8.539 12.312 18.916 15.553 31.131 3.242 12.215 4.862 26.124 4.862 41.677 0 8.659-.58 18.045-1.766 28.204-1.209 10.159-3.362 20.391-6.506 30.647-3.121 10.28-7.402 20.173-12.796 29.679-5.418 9.506-12.385 17.948-20.923 25.301-8.539 7.33-18.746 13.231-30.647 17.658-11.877 4.426-25.93 6.652-42.137 6.652-17.948 0-32.824-2.709-44.604-8.103-11.779-5.418-21.189-12.699-28.203-21.891-7.039-9.192-11.998-20.052-14.925-32.582-2.902-12.554-4.378-25.954-4.378-40.226 0-16.859 1.959-33.331 5.854-49.441 3.87-16.11 10.425-30.429 19.617-42.959 9.167-12.554 21.334-22.665 36.476-30.332 15.118-7.668 33.937-11.514 56.408-11.514zm-6.797 50.264c-7.571 0-14.102 1.354-19.617 4.064-5.515 2.684-10.159 6.312-13.957 10.86-3.773 4.548-6.797 9.627-9.071 15.239a105.062 105.062 0 00-5.345 17.343c-1.306 5.951-2.177 11.683-2.588 17.198-.436 5.515-.653 10.426-.653 14.755 0 19.666 3.289 34.033 9.893 43.128 6.579 9.071 15.94 13.619 28.034 13.619 9.942 0 18.069-3.193 24.334-9.579 6.265-6.362 11.175-14.054 14.755-23.028A117.377 117.377 0 00297.17 254c1.306-9.627 1.959-17.803 1.959-24.503 0-15.771-2.709-28.252-8.103-37.444-5.418-9.191-14.392-13.787-26.922-13.787z"/></svg>