<?xml version="1.0" encoding="iso-8859-1"?>
<!-- Uploaded to: SVG Repo, www.svgrepo.com, Generator: SVG Repo Mixer Tools -->
<svg height="800px" width="800px" version="1.1" id="Layer_1" xmlns="http://www.w3.org/2000/svg" xmlns:xlink="http://www.w3.org/1999/xlink" 
	 viewBox="0 0 392.663 392.663" xml:space="preserve">
<path style="fill:#FFFFFF;" d="M34.958,365.511l93.091-19.329c5.042-1.099,8.663-5.56,8.663-10.667V57.018
	c0-5.172-3.62-9.632-8.663-10.667L34.958,27.022c-0.776-0.129-1.552-0.259-2.263-0.259c-5.947,0-10.796,4.848-10.796,10.925v317.156
	C21.834,361.632,28.234,366.869,34.958,365.511z"/>
<polygon style="fill:#56ACE0;" points="43.62,51.071 114.925,65.939 114.925,326.594 43.62,341.398 "/>
<g>
	<path style="fill:#194F82;" d="M94.691,165.107c-6.012,0-10.925,4.848-10.925,10.925v40.404c0,6.012,4.848,10.925,10.925,10.925
		c6.077,0,10.925-4.848,10.925-10.925v-40.404C105.616,170.085,100.703,165.107,94.691,165.107z"/>
	<path style="fill:#194F82;" d="M389.414,194.004l-48.356-48.356c-4.267-4.267-11.119-4.267-15.451,0
		c-4.267,4.267-4.267,11.119,0,15.451l29.737,29.737h-76.606V32.711C278.739,14.675,264.065,0,246.028,0H32.76
		C14.723,0,0.048,14.675,0.048,32.711v5.042v317.156v5.042c0,18.036,14.675,32.711,32.711,32.711h213.333
		c18.036,0,32.711-14.675,32.711-32.711V212.622h76.541l-29.737,29.737c-4.267,4.267-4.267,11.119,0,15.451
		c5.301,4.331,10.537,4.202,15.451,0l48.356-48.356C393.681,205.123,393.681,198.271,389.414,194.004z M21.834,354.844V37.689
		c0-6.012,4.848-10.925,10.925-10.925c0.776,0,95.354,19.523,95.354,19.523c5.042,1.099,8.663,5.56,8.663,10.667v278.497
		c0,5.172-3.62,9.632-8.663,10.667l-93.091,19.329C28.234,366.869,21.834,361.632,21.834,354.844z M256.954,359.822
		c0,6.012-4.848,10.925-10.925,10.925h-128.97l15.451-3.168c15.063-3.168,26.053-16.614,26.053-32.065V57.018
		c0-15.451-10.99-28.897-26.053-32l-15.451-3.232h129.034c6.012,0,10.925,4.848,10.925,10.925v327.111H256.954z"/>
</g>
<path style="fill:#FFC10D;" d="M246.093,21.786H117.059l15.451,3.232c15.063,3.168,26.053,16.614,26.053,32v278.497
	c0,15.451-10.99,28.897-26.053,32.065l-15.386,3.168h128.97c6.012,0,10.925-4.848,10.925-10.925V32.711
	C256.954,26.699,252.105,21.786,246.093,21.786z"/>
</svg>