<?xml version="1.0" encoding="iso-8859-1"?>
<!-- Uploaded to: SVG Repo, www.svgrepo.com, Generator: SVG Repo Mixer Tools -->
<!DOCTYPE svg PUBLIC "-//W3C//DTD SVG 1.1//EN" "http://www.w3.org/Graphics/SVG/1.1/DTD/svg11.dtd">
<svg height="800px" width="800px" version="1.1" id="Capa_1" xmlns="http://www.w3.org/2000/svg" xmlns:xlink="http://www.w3.org/1999/xlink" 
	 viewBox="0 0 297 297" xml:space="preserve">
<g>
	<g>
		<g>
			<path style="fill:#5E4534;" d="M175.786,251.417L175.786,251.417c3.124-0.962,4.877-4.274,3.915-7.398l-36.002-116.962
				l-11.313,3.482l36.002,116.962C169.35,250.626,172.662,252.379,175.786,251.417z"/>
		</g>
		<g>
			<path style="fill:#32373B;" d="M118.513,45.319c8.387,27.249,16.775,54.497,25.162,81.746
				c-6.833,4.931-14.185,8.175-21.853,10.394L96.66,55.713C104.327,53.494,111.68,50.25,118.513,45.319z"/>
		</g>
		<g>
			<path style="fill:#D0D5D9;" d="M72.411,60.002c8.268-0.827,16.423-2.024,24.249-4.289l25.162,81.746
				c-7.826,2.265-15.98,3.462-24.249,4.289L72.411,60.002z"/>
		</g>
		<g>
			<path style="fill:#32373B;" d="M47.48,62.076c8.28-0.788,16.662-1.247,24.931-2.073l25.162,81.746
				c-8.268,0.827-16.65,1.286-24.931,2.073L47.48,62.076z"/>
		</g>
		<g>
			<path style="fill:#D0D5D9;" d="M22.683,66.261c8.007-2.235,16.349-3.381,24.797-4.185l25.162,81.746
				c-8.448,0.804-16.79,1.95-24.797,4.185L22.683,66.261z"/>
		</g>
		<g>
			<path style="fill:#32373B;" d="M22.683,66.261l25.162,81.746c-7.967,2.224-15.604,5.523-22.683,10.631
				C16.775,131.389,8.387,104.14,0,76.892C7.079,71.783,14.716,68.484,22.683,66.261z"/>
		</g>
		<g>
			<path style="fill:#D0D5D9;" d="M118.513,45.319l6.291,20.436c-6.833,4.931-14.185,8.175-21.853,10.394L96.66,55.713
				C104.327,53.494,111.68,50.25,118.513,45.319z"/>
		</g>
		<g>
			<path style="fill:#32373B;" d="M72.411,60.002c8.268-0.827,16.423-2.024,24.249-4.289l6.291,20.436
				c-7.826,2.265-15.98,3.462-24.249,4.289L72.411,60.002z"/>
		</g>
		<g>
			<path style="fill:#D0D5D9;" d="M47.48,62.076c8.28-0.788,16.662-1.247,24.931-2.073l6.291,20.436
				c-8.268,0.827-16.65,1.286-24.931,2.073L47.48,62.076z"/>
		</g>
		<g>
			<path style="fill:#32373B;" d="M22.683,66.261c8.007-2.235,16.349-3.381,24.797-4.185l6.291,20.436
				c-8.448,0.804-16.79,1.95-24.797,4.185L22.683,66.261z"/>
		</g>
		<g>
			<path style="fill:#D0D5D9;" d="M22.683,66.261l6.291,20.436C21.006,88.921,13.37,92.22,6.291,97.328L0,76.892
				C7.079,71.783,14.716,68.484,22.683,66.261z"/>
		</g>
		<g>
			<path style="fill:#D0D5D9;" d="M131.094,86.192l6.291,20.436c-6.833,4.931-14.185,8.175-21.853,10.394l-6.291-20.436
				C116.908,94.367,124.261,91.123,131.094,86.192z"/>
		</g>
		<g>
			<path style="fill:#32373B;" d="M84.992,100.875c8.268-0.827,16.423-2.024,24.249-4.289l6.291,20.436
				c-7.826,2.265-15.98,3.462-24.249,4.289L84.992,100.875z"/>
		</g>
		<g>
			<path style="fill:#D0D5D9;" d="M60.061,102.948c8.28-0.788,16.662-1.247,24.931-2.073l6.291,20.436
				c-8.268,0.827-16.65,1.286-24.931,2.073L60.061,102.948z"/>
		</g>
		<g>
			<path style="fill:#32373B;" d="M35.264,107.133c8.007-2.235,16.349-3.381,24.797-4.185l6.291,20.436
				c-8.448,0.804-16.79,1.95-24.797,4.185L35.264,107.133z"/>
		</g>
		<g>
			<path style="fill:#D0D5D9;" d="M35.264,107.133l6.291,20.436c-7.967,2.224-15.604,5.523-22.683,10.631l-6.291-20.436
				C19.661,112.656,27.297,109.357,35.264,107.133z"/>
		</g>
	</g>
	<g>
		<g>
			<path style="fill:#905835;" d="M121.214,251.417L121.214,251.417c-3.124-0.962-4.877-4.274-3.915-7.398l36.002-116.962
				l11.313,3.482l-36.002,116.962C127.65,250.626,124.338,252.379,121.214,251.417z"/>
		</g>
		<g>
			<path style="fill:#32373B;" d="M178.487,45.319c-8.387,27.249-16.775,54.497-25.162,81.746
				c6.833,4.931,14.185,8.175,21.853,10.394l25.162-81.746C192.673,53.494,185.32,50.25,178.487,45.319z"/>
		</g>
		<g>
			<path style="fill:#D0D5D9;" d="M224.589,60.002c-8.268-0.827-16.423-2.024-24.249-4.289l-25.162,81.746
				c7.826,2.265,15.98,3.462,24.249,4.289L224.589,60.002z"/>
		</g>
		<g>
			<path style="fill:#32373B;" d="M249.52,62.076c-8.28-0.788-16.662-1.247-24.931-2.073l-25.162,81.746
				c8.268,0.827,16.65,1.286,24.931,2.073L249.52,62.076z"/>
		</g>
		<g>
			<path style="fill:#D0D5D9;" d="M274.317,66.261c-8.007-2.235-16.349-3.381-24.797-4.185l-25.162,81.746
				c8.448,0.804,16.79,1.95,24.797,4.185L274.317,66.261z"/>
		</g>
		<g>
			<path style="fill:#32373B;" d="M274.317,66.261l-25.162,81.746c7.967,2.224,15.604,5.523,22.683,10.631
				c8.387-27.249,16.775-54.497,25.162-81.746C289.921,71.783,282.284,68.484,274.317,66.261z"/>
		</g>
		<g>
			<path style="fill:#D0D5D9;" d="M178.487,45.319l-6.291,20.436c6.833,4.931,14.185,8.175,21.853,10.394l6.291-20.436
				C192.673,53.494,185.32,50.25,178.487,45.319z"/>
		</g>
		<g>
			<path style="fill:#32373B;" d="M224.589,60.002c-8.268-0.827-16.423-2.024-24.249-4.289L194.05,76.15
				c7.826,2.265,15.98,3.462,24.249,4.289L224.589,60.002z"/>
		</g>
		<g>
			<path style="fill:#D0D5D9;" d="M249.52,62.076c-8.28-0.788-16.662-1.247-24.931-2.073l-6.291,20.436
				c8.268,0.827,16.65,1.286,24.931,2.073L249.52,62.076z"/>
		</g>
		<g>
			<path style="fill:#32373B;" d="M274.317,66.261c-8.007-2.235-16.349-3.381-24.797-4.185l-6.291,20.436
				c8.448,0.804,16.79,1.95,24.797,4.185L274.317,66.261z"/>
		</g>
		<g>
			<path style="fill:#D0D5D9;" d="M274.317,66.261l-6.291,20.436c7.967,2.224,15.604,5.523,22.683,10.631L297,76.892
				C289.921,71.783,282.284,68.484,274.317,66.261z"/>
		</g>
		<g>
			<path style="fill:#D0D5D9;" d="M165.906,86.192l-6.291,20.436c6.833,4.931,14.185,8.175,21.853,10.394l6.291-20.436
				C180.092,94.367,172.739,91.123,165.906,86.192z"/>
		</g>
		<g>
			<path style="fill:#32373B;" d="M212.008,100.875c-8.268-0.827-16.423-2.024-24.249-4.289l-6.291,20.436
				c7.826,2.265,15.98,3.462,24.249,4.289L212.008,100.875z"/>
		</g>
		<g>
			<path style="fill:#D0D5D9;" d="M236.939,102.948c-8.28-0.788-16.662-1.247-24.931-2.073l-6.291,20.436
				c8.268,0.827,16.65,1.286,24.931,2.073L236.939,102.948z"/>
		</g>
		<g>
			<path style="fill:#32373B;" d="M261.736,107.133c-8.007-2.235-16.349-3.381-24.797-4.185l-6.291,20.436
				c8.448,0.804,16.79,1.95,24.797,4.185L261.736,107.133z"/>
		</g>
		<g>
			<path style="fill:#D0D5D9;" d="M261.736,107.133l-6.291,20.436c7.967,2.224,15.604,5.523,22.683,10.631l6.291-20.436
				C277.339,112.656,269.703,109.357,261.736,107.133z"/>
		</g>
	</g>
</g>
</svg>