<svg xmlns="http://www.w3.org/2000/svg" width="512" height="512" viewBox="0 0 24 24"><g fill="none"><path fill="#ffef5e" d="m4.828 17.618l-2.216 1.244a.501.501 0 0 1-.714-.627l.921-2.108l-1.66-1.635a.468.468 0 0 1 .327-.817H3.4l.985-2.119a.496.496 0 0 1 .887 0l.985 2.119H8.17a.469.469 0 0 1 .328.817l-1.661 1.635l.92 2.111a.501.501 0 0 1-.714.627zm14.331 0l-2.216 1.244a.501.501 0 0 1-.713-.627l.919-2.111l-1.66-1.635a.467.467 0 0 1 .328-.817h1.913l.985-2.119a.496.496 0 0 1 .888 0l.984 2.119h1.912a.468.468 0 0 1 .33.817l-1.66 1.635l.92 2.111a.502.502 0 0 1-.714.627z"/><path fill="#ffef5e" d="m12.563 5.409l1.226 2.526h2.386a.585.585 0 0 1 .415 1.022l-2.071 2.164l1.147 2.64a.625.625 0 0 1-.89.784L12 12.982l-2.774 1.563a.625.625 0 0 1-.89-.783l1.148-2.64l-2.075-2.165a.585.585 0 0 1 .413-1.022h2.391l1.23-2.526a.633.633 0 0 1 1.12 0"/><path fill="#fff9bf" d="m8.76 12.79l4.972-4.973l-1.169-2.408a.633.633 0 0 0-1.125 0l-1.23 2.526h-2.39a.585.585 0 0 0-.408 1.022l2.07 2.163z"/><path stroke="#191919" stroke-linecap="round" stroke-linejoin="round" d="m12.563 5.409l1.226 2.526h2.386a.585.585 0 0 1 .415 1.022l-2.071 2.164l1.147 2.64a.625.625 0 0 1-.89.784L12 12.982l-2.774 1.563a.625.625 0 0 1-.89-.783l1.148-2.64l-2.075-2.165a.585.585 0 0 1 .413-1.022h2.391l1.23-2.526a.633.633 0 0 1 1.12 0m5.167 8.266l.985-2.119a.507.507 0 0 1 .902 0l.982 2.119h1.913a.468.468 0 0 1 .33.817l-1.661 1.635l.92 2.112a.5.5 0 0 1-.714.626l-2.223-1.25l-2.223 1.25a.5.5 0 0 1-.713-.626l.527-1.21m-9.506.011l.522 1.2a.5.5 0 0 1-.713.625l-2.224-1.25l-2.222 1.25a.5.5 0 0 1-.714-.626l.921-2.112l-1.66-1.635a.468.468 0 0 1 .327-.817H3.4l.985-2.119a.507.507 0 0 1 .902 0l.982 2.119"/></g></svg>